<svg width="24" height="24" viewBox="0 0 24 24" fill="none" xmlns="http://www.w3.org/2000/svg">
<path d="M12 3C5.93659 3 1 7.93659 1 14C1 16.0002 1.53645 17.8837 2.47266 19.502C2.56037 19.6538 2.68648 19.78 2.83835 19.8678C2.99021 19.9555 3.16249 20.0018 3.33789 20.002L20.6621 20C20.8375 19.9999 21.0098 19.9536 21.1617 19.8658C21.3135 19.7781 21.4396 19.6519 21.5273 19.5C22.4635 17.8819 23 16.0002 23 14C23 7.93659 18.0634 3 12 3ZM12 5C16.9826 5 21 9.01741 21 14C21 15.4509 20.6125 16.7896 20.0059 18H18.9746C18.9911 17.9282 18.9996 17.8549 19 17.7812C19 17.516 18.8946 17.2617 18.7071 17.0741C18.5196 16.8866 18.2652 16.7812 18 16.7812C17.7348 16.7812 17.4804 16.8866 17.2929 17.0741C17.1054 17.2617 17 17.516 17 17.7812C17.0004 17.8549 17.0089 17.9282 17.0254 18L6.86328 18.002C6.95234 17.8496 6.99951 17.6764 7 17.5C7 17.2348 6.89464 16.9804 6.70711 16.7929C6.51957 16.6054 6.26522 16.5 6 16.5C5.73478 16.5 5.48043 16.6054 5.29289 16.7929C5.10536 16.9804 5 17.2348 5 17.5C5.00049 17.6764 5.04766 17.8496 5.13672 18.002H3.99609C3.38887 16.791 3 15.4516 3 14C3 9.01741 7.01741 5 12 5ZM12 6C11.7348 6 11.4804 6.10536 11.2929 6.29289C11.1054 6.48043 11 6.73478 11 7C11 7.26522 11.1054 7.51957 11.2929 7.70711C11.4804 7.89464 11.7348 8 12 8C12.2652 8 12.5196 7.89464 12.7071 7.70711C12.8946 7.51957 13 7.26522 13 7C13 6.73478 12.8946 6.48043 12.7071 6.29289C12.5196 6.10536 12.2652 6 12 6ZM8.5 7C8.23478 7 7.98043 7.10536 7.79289 7.29289C7.60536 7.48043 7.5 7.73478 7.5 8C7.5 8.26522 7.60536 8.51957 7.79289 8.70711C7.98043 8.89464 8.23478 9 8.5 9C8.76522 9 9.01957 8.89464 9.20711 8.70711C9.39464 8.51957 9.5 8.26522 9.5 8C9.5 7.73478 9.39464 7.48043 9.20711 7.29289C9.01957 7.10536 8.76522 7 8.5 7ZM15.4375 7C15.1723 7 14.9179 7.10536 14.7304 7.29289C14.5429 7.48043 14.4375 7.73478 14.4375 8C14.4375 8.26522 14.5429 8.51957 14.7304 8.70711C14.9179 8.89464 15.1723 9 15.4375 9C15.7027 9 15.9571 8.89464 16.1446 8.70711C16.3321 8.51957 16.4375 8.26522 16.4375 8C16.4375 7.73478 16.3321 7.48043 16.1446 7.29289C15.9571 7.10536 15.7027 7 15.4375 7ZM18.041 9.39648L13.0059 12.2734C12.7006 12.095 12.3536 12.0006 12 12C11.4696 12 10.9609 12.2107 10.5858 12.5858C10.2107 12.9609 10 13.4696 10 14C10 14.5304 10.2107 15.0391 10.5858 15.4142C10.9609 15.7893 11.4696 16 12 16C12.5287 16 13.036 15.7906 13.4108 15.4177C13.7856 15.0447 13.9974 14.5385 14 14.0098L19.0332 11.1328L18.041 9.39648ZM6 9.5C5.73478 9.5 5.48043 9.60536 5.29289 9.79289C5.10536 9.98043 5 10.2348 5 10.5C5 10.7652 5.10536 11.0196 5.29289 11.2071C5.48043 11.3946 5.73478 11.5 6 11.5C6.26522 11.5 6.51957 11.3946 6.70711 11.2071C6.89464 11.0196 7 10.7652 7 10.5C7 10.2348 6.89464 9.98043 6.70711 9.79289C6.51957 9.60536 6.26522 9.5 6 9.5ZM5 13C4.73478 13 4.48043 13.1054 4.29289 13.2929C4.10536 13.4804 4 13.7348 4 14C4 14.2652 4.10536 14.5196 4.29289 14.7071C4.48043 14.8946 4.73478 15 5 15C5.26522 15 5.51957 14.8946 5.70711 14.7071C5.89464 14.5196 6 14.2652 6 14C6 13.7348 5.89464 13.4804 5.70711 13.2929C5.51957 13.1054 5.26522 13 5 13ZM19 13C18.7348 13 18.4804 13.1054 18.2929 13.2929C18.1054 13.4804 18 13.7348 18 14C18 14.2652 18.1054 14.5196 18.2929 14.7071C18.4804 14.8946 18.7348 15 19 15C19.2652 15 19.5196 14.8946 19.7071 14.7071C19.8946 14.5196 20 14.2652 20 14C20 13.7348 19.8946 13.4804 19.7071 13.2929C19.5196 13.1054 19.2652 13 19 13Z" fill="#303952"/>
</svg>
